<svg version="1.1" id="Layer_1" xmlns="http://www.w3.org/2000/svg" xmlns:xlink="http://www.w3.org/1999/xlink" x="0px" y="0px"
	 width="100%" viewBox="0 0 500 500" enable-background="new 0 0 500 500" xml:space="preserve">
<path fill="#FFFFFF" opacity="1.000000" stroke="none" 
	d="
M280.000000,501.000000 
	C186.666687,501.000000 93.833374,501.000000 1.000050,501.000000 
	C1.000033,334.333405 1.000033,167.666794 1.000017,1.000139 
	C167.666565,1.000093 334.333130,1.000093 500.999756,1.000046 
	C500.999847,167.666519 500.999847,334.333038 500.999939,500.999786 
	C427.500000,501.000000 354.000000,501.000000 280.000000,501.000000 
M195.500000,351.043243 
	C246.834732,351.043243 298.169464,351.043243 349.197388,351.043243 
	C282.970795,284.916138 216.963959,219.008484 151.335861,153.478973 
	C151.335861,218.596786 151.335861,284.594452 151.335861,351.043274 
	C165.925980,351.043274 180.212997,351.043274 195.500000,351.043243 
M247.100174,364.205505 
	C244.336594,363.758179 241.573029,363.310852 238.434540,362.802856 
	C238.434540,361.659912 238.686676,360.119629 238.336929,358.730988 
	C238.137421,357.938812 236.925095,356.847565 236.225723,356.887512 
	C235.489899,356.929565 234.233627,358.145905 234.216217,358.873291 
	C234.059143,365.438873 234.124329,372.009766 234.124329,379.430115 
	C239.111221,377.086670 244.701721,382.289856 248.221207,376.442261 
	C250.524506,372.615387 250.248230,368.536865 247.100174,364.205505 
M132.582413,252.101761 
	C130.993576,252.582504 129.082535,252.674469 127.904510,253.650848 
	C126.671486,254.672836 125.272369,256.718567 125.528595,258.000427 
	C125.842255,259.569580 127.708839,261.872711 129.064987,261.989563 
	C132.852188,262.315857 136.722458,261.678101 140.090302,261.452332 
	C139.595688,258.058777 139.425873,254.994461 138.633560,252.100586 
	C138.071182,250.046570 136.952393,246.872452 135.580536,246.584137 
	C132.931305,246.027374 129.897064,247.032700 127.103218,247.719177 
	C126.674561,247.824478 126.676628,249.682831 126.384407,251.235748 
	C128.808334,250.449280 130.322388,249.776398 131.896317,249.577805 
	C132.279373,249.529465 132.859161,251.040253 132.582413,252.101761 
M287.657928,246.547028 
	C285.867615,246.386642 284.012573,245.848312 282.299927,246.141556 
	C278.260834,246.833115 276.456787,249.842758 276.327423,253.616623 
	C276.185028,257.771271 277.803986,261.173004 282.308105,262.128143 
	C286.027466,262.916840 289.132263,262.053986 291.004761,257.251221 
	C289.407593,257.172394 288.288544,257.049347 287.173309,257.077362 
	C285.316650,257.124023 283.462433,257.267578 281.607208,257.370331 
	C281.504059,255.301514 280.846497,253.012527 281.542114,251.260956 
	C281.867920,250.440659 284.803192,250.638382 286.560577,250.412018 
	C287.572815,250.281631 288.594635,250.225632 289.612122,250.136154 
	C289.199280,249.063904 288.786438,247.991653 287.657928,246.547028 
z"/>
<path fill="#9058FF" opacity="1.000000" stroke="none" 
	d="
M195.000000,351.043274 
	C180.212997,351.043274 165.925980,351.043274 151.335861,351.043274 
	C151.335861,284.594452 151.335861,218.596786 151.335861,153.478973 
	C216.963959,219.008484 282.970795,284.916138 349.197388,351.043243 
	C298.169464,351.043243 246.834732,351.043243 195.000000,351.043274 
M225.499969,344.308319 
	C261.211456,344.308319 296.922913,344.308319 333.095917,344.308319 
	C274.144470,285.773773 215.772476,227.814560 158.284546,170.733154 
	C158.284546,227.210327 158.284546,285.543488 158.284546,344.308777 
	C180.586426,344.308777 202.543182,344.308777 225.499969,344.308319 
z"/>
<path fill="#935DFF" opacity="1.000000" stroke="none" 
	d="
M247.378494,364.481018 
	C250.248230,368.536865 250.524506,372.615387 248.221207,376.442261 
	C244.701721,382.289856 239.111221,377.086670 234.124329,379.430115 
	C234.124329,372.009766 234.059143,365.438873 234.216217,358.873291 
	C234.233627,358.145905 235.489899,356.929565 236.225723,356.887512 
	C236.925095,356.847565 238.137421,357.938812 238.336929,358.730988 
	C238.686676,360.119629 238.434540,361.659912 238.434540,362.802856 
	C241.573029,363.310852 244.336594,363.758179 247.378494,364.481018 
M238.745682,373.644470 
	C240.371964,374.220917 241.998245,374.797363 243.624527,375.373779 
	C244.081650,373.225555 244.911819,371.061462 244.821548,368.936493 
	C244.782684,368.021576 242.836548,367.187714 241.756882,366.317017 
	C240.555069,367.869904 239.274368,369.371429 238.206467,371.011475 
	C237.936584,371.425995 238.346069,372.282867 238.745682,373.644470 
z"/>
<path fill="#9762FF" opacity="1.000000" stroke="none" 
	d="
M132.965454,251.967957 
	C132.859161,251.040253 132.279373,249.529465 131.896317,249.577805 
	C130.322388,249.776398 128.808334,250.449280 126.384407,251.235748 
	C126.676628,249.682831 126.674561,247.824478 127.103218,247.719177 
	C129.897064,247.032700 132.931305,246.027374 135.580536,246.584137 
	C136.952393,246.872452 138.071182,250.046570 138.633560,252.100586 
	C139.425873,254.994461 139.595688,258.058777 140.090302,261.452332 
	C136.722458,261.678101 132.852188,262.315857 129.064987,261.989563 
	C127.708839,261.872711 125.842255,259.569580 125.528595,258.000427 
	C125.272369,256.718567 126.671486,254.672836 127.904510,253.650848 
	C129.082535,252.674469 130.993576,252.582504 132.965454,251.967957 
z"/>
<path fill="#945EFF" opacity="1.000000" stroke="none" 
	d="
M288.015778,246.733215 
	C288.786438,247.991653 289.199280,249.063904 289.612122,250.136169 
	C288.594635,250.225632 287.572815,250.281631 286.560577,250.412018 
	C284.803192,250.638382 281.867920,250.440659 281.542114,251.260956 
	C280.846497,253.012527 281.504059,255.301514 281.607208,257.370331 
	C283.462433,257.267578 285.316650,257.124023 287.173309,257.077362 
	C288.288544,257.049347 289.407593,257.172394 291.004761,257.251221 
	C289.132263,262.053986 286.027466,262.916840 282.308105,262.128143 
	C277.803986,261.173004 276.185028,257.771271 276.327423,253.616623 
	C276.456787,249.842758 278.260834,246.833115 282.299927,246.141556 
	C284.012573,245.848312 285.867615,246.386642 288.015778,246.733215 
z"/>
<path fill="#FFFEFF" opacity="1.000000" stroke="none" 
	d="
M224.999954,344.308533 
	C202.543182,344.308777 180.586426,344.308777 158.284546,344.308777 
	C158.284546,285.543488 158.284546,227.210327 158.284546,170.733154 
	C215.772476,227.814560 274.144470,285.773773 333.095917,344.308319 
	C296.922913,344.308319 261.211456,344.308319 224.999954,344.308533 
z"/>
<path fill="#F8F4FF" opacity="1.000000" stroke="none" 
	d="
M238.594528,373.290466 
	C238.346069,372.282867 237.936584,371.425995 238.206467,371.011475 
	C239.274368,369.371429 240.555069,367.869904 241.756897,366.317017 
	C242.836548,367.187714 244.782684,368.021576 244.821548,368.936493 
	C244.911819,371.061462 244.081650,373.225555 243.624527,375.373779 
	C241.998245,374.797363 240.371964,374.220917 238.594528,373.290466 
z"/>
</svg>