<?xml version='1.0' encoding='utf-8'?>
<svg xmlns="http://www.w3.org/2000/svg" height="100%" stroke-miterlimit="10" style="fill-rule:nonzero;clip-rule:evenodd;stroke-linecap:round;stroke-linejoin:round;" version="1.1" viewBox="0 0 3000 3000" width="100%"> <defs> <linearGradient gradientTransform="matrix(1 0 0 1 0 0)" gradientUnits="userSpaceOnUse" id="LinearGradient" x1="1500.14" x2="2805.81" y1="1500.08" y2="194.188"> <stop offset="0" stop-color="#7e7e7e"/> <stop offset="0.555825" stop-color="#c8c8c8"/> <stop offset="1" stop-color="#7e7e7e"/> </linearGradient> </defs> <g id="Layer-1"/> <g id="Layer-3"> <path d="M474 194.188C319.461 194.187 194.187 319.461 194.188 474L194.188 2526C194.187 2680.54 319.461 2805.81 474 2805.81L2526 2805.81C2680.54 2805.81 2805.81 2680.54 2805.81 2526L2805.81 474C2805.81 319.461 2680.54 194.188 2526 194.188L474 194.188ZM829.812 651.938C960.014 651.937 1040.03 737.322 1042.41 849.625C1042.41 959.552 959.859 1047.31 827.281 1047.31C827.281 1047.31 824.75 1047.31 824.75 1047.31C697.083 1047.31 614.562 959.552 614.562 849.625C614.562 737.481 699.611 651.938 829.812 651.938ZM1947.62 1176.56C2197.89 1176.56 2385.44 1340.02 2385.44 1691.66L2385.44 2348.06L2005.12 2348.06L2005.12 1735.84C2005.12 1581.88 1950.15 1477.03 1812.5 1477.03C1707.33 1477.03 1644.78 1547.83 1617.38 1616.09C1607.24 1640.49 1604.69 1674.72 1604.69 1708.94L1604.69 2348.06L1224.56 2348.06C1224.56 2348.06 1229.31 1311.05 1224.56 1203.66L1604.69 1203.66L1604.69 1365.53C1655.37 1287.44 1745.83 1176.56 1947.62 1176.56ZM637.062 1203.66L1017.38 1203.66L1017.38 2348.06L637.062 2348.06L637.062 1203.66ZM1604.69 1365.53C1603.84 1366.85 1603 1368.15 1602.16 1369.47L1604.69 1369.47L1604.69 1365.53Z" fill="url(#LinearGradient)" fill-rule="nonzero" opacity="1" stroke="none"/> </g> </svg>